<svg width="191" height="44" viewBox="0 0 191 44" fill="none" xmlns="http://www.w3.org/2000/svg">
<path d="M50.233 26.2593L49.2855 27.2068C48.8152 27.6309 48.2 27.8583 47.567 27.842C46.9339 27.8258 46.3312 27.5672 45.8833 27.1196C45.4353 26.672 45.1762 26.0695 45.1594 25.4364C45.1426 24.8034 45.3694 24.188 45.793 23.7173L46.7406 22.7697C46.935 22.5755 47.0444 22.312 47.0446 22.0371C47.0448 21.7622 46.9358 21.4986 46.7416 21.3041C46.5474 21.1096 46.2839 21.0002 46.009 21C45.7342 20.9998 45.4705 21.1088 45.276 21.303L44.3295 22.2506C43.4782 23.1019 43 24.2566 43 25.4605C43 26.6645 43.4782 27.8191 44.3295 28.6704C45.1808 29.5217 46.3354 30 47.5393 30C48.7431 30 49.8977 29.5217 50.749 28.6704L51.6965 27.7239C51.8907 27.5298 51.9999 27.2665 52 26.9919C52.0001 26.7174 51.8911 26.454 51.697 26.2598C51.503 26.0655 51.2397 25.9564 50.9651 25.9563C50.6906 25.9562 50.4272 26.0652 50.233 26.2593Z" fill="white"/>
<path d="M51.2326 20.3032L48.3032 23.2326C48.1091 23.4268 48 23.6901 48 23.9647C48 24.2393 48.1091 24.5026 48.3032 24.6968C48.4974 24.8909 48.7607 25 49.0353 25C49.3099 25 49.5732 24.8909 49.7674 24.6968L52.6968 21.7674C52.8909 21.5732 53 21.3099 53 21.0353C53 20.7607 52.8909 20.4974 52.6968 20.3032C52.5026 20.1091 52.2393 20 51.9647 20C51.6901 20 51.4268 20.1091 51.2326 20.3032Z" fill="white"/>
<path d="M56.6703 16.3297C56.2489 15.9082 55.7485 15.5737 55.1978 15.3456C54.647 15.1174 54.0568 15 53.4607 15C52.8645 15 52.2743 15.1174 51.7236 15.3456C51.1728 15.5737 50.6724 15.9082 50.251 16.3297L49.3035 17.2763C49.1093 17.4703 49.0001 17.7336 49 18.0082C48.9999 18.2828 49.1089 18.5461 49.3029 18.7403C49.497 18.9345 49.7603 19.0437 50.0348 19.0438C50.3094 19.0439 50.5727 18.9349 50.767 18.7408L51.7145 17.7933C52.1848 17.3692 52.7999 17.1419 53.4329 17.1581C54.066 17.1743 54.6687 17.4329 55.1166 17.8805C55.5646 18.3281 55.8237 18.9306 55.8405 19.5636C55.8573 20.1967 55.6305 20.8121 55.2068 21.2828L54.2593 22.2303C54.0649 22.4245 53.9555 22.6881 53.9553 22.9629C53.9551 23.2378 54.0641 23.5015 54.2583 23.6959C54.4525 23.8904 54.716 23.9998 54.9909 24C55.2657 24.0002 55.5294 23.8912 55.7239 23.697L56.6703 22.7494C57.0919 22.3279 57.4263 21.8275 57.6544 21.2768C57.8826 20.726 58 20.1357 58 19.5396C58 18.9434 57.8826 18.3531 57.6544 17.8024C57.4263 17.2516 57.0919 16.7512 56.6703 16.3297Z" fill="white"/>
<rect width="191" height="44" rx="10" fill="#EA2B40"/>
<path d="M49.8669 24.2227C49.8143 24.1837 49.7519 24.1601 49.6867 24.1544C49.6215 24.1487 49.5559 24.1612 49.4974 24.1906C49.4389 24.2199 49.3896 24.2649 49.3551 24.3205C49.3206 24.3762 49.3022 24.4403 49.3019 24.5058V26.587C49.3019 26.9617 49.153 27.3211 48.8881 27.5861C48.6231 27.8511 48.2637 28 47.8889 28H39.413C39.0383 28 38.6789 27.8511 38.4139 27.5861C38.1489 27.3211 38 26.9617 38 26.587V18.413C38 18.0383 38.1489 17.6789 38.4139 17.4139C38.6789 17.1489 39.0383 17 39.413 17H47.8889C48.2637 17 48.6231 17.1489 48.8881 17.4139C49.153 17.6789 49.3019 18.0383 49.3019 18.413V20.4942C49.3018 20.5599 49.3199 20.6243 49.3543 20.6802C49.3888 20.7361 49.4381 20.7813 49.4968 20.8107C49.5555 20.8401 49.6212 20.8525 49.6866 20.8466C49.752 20.8407 49.8144 20.8167 49.8669 20.7773L52.4099 18.605C52.5394 18.509 52.6975 18.4595 52.8587 18.4645C53.0199 18.4696 53.1746 18.5289 53.2979 18.6328C53.3766 18.7017 53.4391 18.7872 53.4808 18.8832C53.5224 18.9792 53.5422 19.0832 53.5387 19.1878V25.83C53.5388 25.9612 53.5024 26.0898 53.4335 26.2014C53.3645 26.3131 53.2659 26.4033 53.1485 26.4619C53.0312 26.5206 52.8998 26.5454 52.7691 26.5336C52.6385 26.5218 52.5137 26.4738 52.4088 26.395L49.8669 24.2227Z" fill="white"/>
<path d="M74.8182 20.1406C74.7287 19.8295 74.603 19.5547 74.4411 19.3161C74.2791 19.0732 74.081 18.8686 73.8466 18.7024C73.6165 18.532 73.3523 18.402 73.054 18.3125C72.7599 18.223 72.4339 18.1783 72.076 18.1783C71.407 18.1783 70.8189 18.3445 70.3118 18.6768C69.8089 19.0092 69.4169 19.4929 69.1357 20.1278C68.8544 20.7585 68.7138 21.5298 68.7138 22.4418C68.7138 23.3537 68.8523 24.1293 69.1293 24.7685C69.4063 25.4077 69.7983 25.8956 70.3054 26.2322C70.8125 26.5646 71.4112 26.7308 72.1016 26.7308C72.728 26.7308 73.2628 26.62 73.706 26.3984C74.1534 26.1726 74.4943 25.8551 74.7287 25.446C74.9673 25.0369 75.0866 24.5533 75.0866 23.995L75.6491 24.0781H72.2741V21.9943H77.7521V23.6435C77.7521 24.794 77.5092 25.7827 77.0234 26.6094C76.5376 27.4318 75.8686 28.0668 75.0163 28.5142C74.1641 28.9574 73.1882 29.179 72.0888 29.179C70.8615 29.179 69.7834 28.9084 68.8544 28.3672C67.9254 27.8217 67.201 27.0483 66.6811 26.0469C66.1655 25.0412 65.9077 23.848 65.9077 22.4673C65.9077 21.4062 66.0611 20.4602 66.3679 19.6293C66.679 18.794 67.1136 18.0866 67.6719 17.5071C68.2301 16.9276 68.88 16.4865 69.6214 16.1839C70.3629 15.8814 71.1662 15.7301 72.0312 15.7301C72.7727 15.7301 73.4631 15.8388 74.1023 16.0561C74.7415 16.2692 75.3082 16.5717 75.8026 16.9638C76.3011 17.3558 76.7081 17.8224 77.0234 18.3636C77.3388 18.9006 77.5412 19.4929 77.6307 20.1406H74.8182ZM84.2544 29.1918C83.2445 29.1918 82.3752 28.9872 81.6465 28.5781C80.9221 28.1648 80.3638 27.581 79.9718 26.8267C79.5797 26.0682 79.3837 25.1712 79.3837 24.1357C79.3837 23.1257 79.5797 22.2393 79.9718 21.4766C80.3638 20.7138 80.9157 20.1193 81.6273 19.6932C82.3432 19.267 83.1827 19.054 84.1458 19.054C84.7935 19.054 85.3965 19.1584 85.9547 19.3672C86.5172 19.5717 87.0073 19.8807 87.4249 20.294C87.8468 20.7074 88.1749 21.2273 88.4093 21.8537C88.6436 22.4759 88.7608 23.2045 88.7608 24.0398V24.7876H80.4703V23.1001H86.1976C86.1976 22.7081 86.1124 22.3608 85.9419 22.0582C85.7715 21.7557 85.535 21.5192 85.2324 21.3487C84.9341 21.174 84.5868 21.0866 84.1905 21.0866C83.7772 21.0866 83.4107 21.1825 83.0911 21.3743C82.7757 21.5618 82.5286 21.8153 82.3496 22.1349C82.1706 22.4503 82.079 22.8018 82.0748 23.1896V24.794C82.0748 25.2798 82.1642 25.6996 82.3432 26.0533C82.5265 26.407 82.7843 26.6797 83.1167 26.8714C83.449 27.0632 83.8432 27.1591 84.2992 27.1591C84.6017 27.1591 84.8787 27.1165 85.1301 27.0312C85.3816 26.946 85.5968 26.8182 85.7757 26.6477C85.9547 26.4773 86.0911 26.2685 86.1848 26.0213L88.7033 26.1875C88.5755 26.7926 88.3134 27.321 87.9171 27.7727C87.525 28.2202 87.0179 28.5696 86.3958 28.821C85.7779 29.0682 85.0641 29.1918 84.2544 29.1918ZM95.7601 19.1818V21.2273H89.8475V19.1818H95.7601ZM91.1898 16.8295H93.9128V25.983C93.9128 26.2344 93.9512 26.4304 94.0279 26.571C94.1046 26.7074 94.2111 26.8033 94.3475 26.8587C94.4881 26.9141 94.65 26.9418 94.8333 26.9418C94.9611 26.9418 95.089 26.9311 95.2168 26.9098C95.3446 26.8842 95.4426 26.8651 95.5108 26.8523L95.9391 28.8786C95.8027 28.9212 95.611 28.9702 95.3638 29.0256C95.1167 29.0852 94.8162 29.1214 94.4625 29.1342C93.8063 29.1598 93.231 29.0724 92.7367 28.8722C92.2466 28.6719 91.8652 28.3608 91.5925 27.9389C91.3198 27.517 91.1855 26.9844 91.1898 26.3409V16.8295ZM106.922 19.1818V21.2273H101.01V19.1818H106.922ZM102.352 16.8295H105.075V25.983C105.075 26.2344 105.113 26.4304 105.19 26.571C105.267 26.7074 105.373 26.8033 105.51 26.8587C105.65 26.9141 105.812 26.9418 105.995 26.9418C106.123 26.9418 106.251 26.9311 106.379 26.9098C106.507 26.8842 106.605 26.8651 106.673 26.8523L107.101 28.8786C106.965 28.9212 106.773 28.9702 106.526 29.0256C106.279 29.0852 105.978 29.1214 105.625 29.1342C104.968 29.1598 104.393 29.0724 103.899 28.8722C103.409 28.6719 103.027 28.3608 102.755 27.9389C102.482 27.517 102.348 26.9844 102.352 26.3409V16.8295ZM108.696 29V19.1818H111.419V29H108.696ZM110.064 17.9162C109.659 17.9162 109.312 17.782 109.022 17.5135C108.737 17.2408 108.594 16.9148 108.594 16.5355C108.594 16.1605 108.737 15.8388 109.022 15.5703C109.312 15.2976 109.659 15.1612 110.064 15.1612C110.469 15.1612 110.814 15.2976 111.099 15.5703C111.389 15.8388 111.534 16.1605 111.534 16.5355C111.534 16.9148 111.389 17.2408 111.099 17.5135C110.814 17.782 110.469 17.9162 110.064 17.9162ZM118.036 29.1918C117.031 29.1918 116.166 28.9787 115.441 28.5526C114.721 28.1222 114.167 27.5256 113.779 26.7628C113.396 26 113.204 25.1222 113.204 24.1293C113.204 23.1236 113.398 22.2415 113.786 21.483C114.178 20.7202 114.734 20.1257 115.454 19.6996C116.174 19.2692 117.031 19.054 118.024 19.054C118.88 19.054 119.63 19.2095 120.274 19.5206C120.917 19.8317 121.426 20.2685 121.801 20.831C122.176 21.3935 122.383 22.054 122.421 22.8125H119.852C119.779 22.3224 119.588 21.9283 119.276 21.63C118.97 21.3274 118.567 21.1761 118.068 21.1761C117.646 21.1761 117.278 21.2912 116.963 21.5213C116.651 21.7472 116.409 22.0774 116.234 22.5121C116.059 22.9467 115.972 23.473 115.972 24.0909C115.972 24.7173 116.057 25.25 116.227 25.6889C116.402 26.1278 116.647 26.4624 116.963 26.6925C117.278 26.9226 117.646 27.0376 118.068 27.0376C118.379 27.0376 118.659 26.9737 118.906 26.8459C119.157 26.718 119.364 26.5327 119.526 26.2898C119.692 26.0426 119.801 25.7464 119.852 25.4013H122.421C122.379 26.1513 122.174 26.8118 121.808 27.3828C121.445 27.9496 120.945 28.3928 120.306 28.7124C119.666 29.032 118.91 29.1918 118.036 29.1918ZM126.632 26.1747L126.638 22.9084H127.035L130.18 19.1818H133.305L129.08 24.1165H128.435L126.632 26.1747ZM124.165 29V15.9091H126.888V29H124.165ZM130.301 29L127.412 24.7237L129.227 22.7997L133.491 29H130.301ZM138.711 29.1918C137.702 29.1918 136.832 28.9872 136.104 28.5781C135.379 28.1648 134.821 27.581 134.429 26.8267C134.037 26.0682 133.841 25.1712 133.841 24.1357C133.841 23.1257 134.037 22.2393 134.429 21.4766C134.821 20.7138 135.373 20.1193 136.084 19.6932C136.8 19.267 137.64 19.054 138.603 19.054C139.251 19.054 139.854 19.1584 140.412 19.3672C140.974 19.5717 141.464 19.8807 141.882 20.294C142.304 20.7074 142.632 21.2273 142.866 21.8537C143.101 22.4759 143.218 23.2045 143.218 24.0398V24.7876H134.927V23.1001H140.655C140.655 22.7081 140.569 22.3608 140.399 22.0582C140.229 21.7557 139.992 21.5192 139.689 21.3487C139.391 21.174 139.044 21.0866 138.648 21.0866C138.234 21.0866 137.868 21.1825 137.548 21.3743C137.233 21.5618 136.986 21.8153 136.807 22.1349C136.628 22.4503 136.536 22.8018 136.532 23.1896V24.794C136.532 25.2798 136.621 25.6996 136.8 26.0533C136.983 26.407 137.241 26.6797 137.574 26.8714C137.906 27.0632 138.3 27.1591 138.756 27.1591C139.059 27.1591 139.336 27.1165 139.587 27.0312C139.839 26.946 140.054 26.8182 140.233 26.6477C140.412 26.4773 140.548 26.2685 140.642 26.0213L143.16 26.1875C143.032 26.7926 142.77 27.321 142.374 27.7727C141.982 28.2202 141.475 28.5696 140.853 28.821C140.235 29.0682 139.521 29.1918 138.711 29.1918ZM150.217 19.1818V21.2273H144.305V19.1818H150.217ZM145.647 16.8295H148.37V25.983C148.37 26.2344 148.408 26.4304 148.485 26.571C148.562 26.7074 148.668 26.8033 148.805 26.8587C148.945 26.9141 149.107 26.9418 149.29 26.9418C149.418 26.9418 149.546 26.9311 149.674 26.9098C149.802 26.8842 149.9 26.8651 149.968 26.8523L150.396 28.8786C150.26 28.9212 150.068 28.9702 149.821 29.0256C149.574 29.0852 149.273 29.1214 148.92 29.1342C148.263 29.1598 147.688 29.0724 147.194 28.8722C146.704 28.6719 146.322 28.3608 146.05 27.9389C145.777 27.517 145.643 26.9844 145.647 26.3409V16.8295Z" fill="white"/>
</svg>
