<svg width="191" height="44" viewBox="0 0 191 44" fill="none" xmlns="http://www.w3.org/2000/svg">
<rect width="191" height="44" rx="10" fill="#EA2B40"/>
<path d="M61.3942 29H58.4283L62.9474 15.9091H66.5142L71.027 29H68.0611L64.782 18.9006H64.6797L61.3942 29ZM61.2088 23.8544H68.2145V26.0149H61.2088V23.8544ZM72.5515 32.6818V19.1818H75.2362V20.831H75.3576C75.4769 20.5668 75.6495 20.2983 75.8754 20.0256C76.1055 19.7486 76.4038 19.5185 76.7702 19.3352C77.141 19.1477 77.6012 19.054 78.1509 19.054C78.8668 19.054 79.5273 19.2415 80.1325 19.6165C80.7376 19.9872 81.2212 20.5476 81.5835 21.2976C81.9457 22.0433 82.1268 22.9787 82.1268 24.1037C82.1268 25.1989 81.9499 26.1236 81.5962 26.8778C81.2468 27.6278 80.7695 28.1967 80.1644 28.5845C79.5636 28.968 78.8903 29.1598 78.1445 29.1598C77.6161 29.1598 77.1665 29.0724 76.7958 28.8977C76.4293 28.723 76.1289 28.5036 75.8945 28.2393C75.6602 27.9709 75.4812 27.7003 75.3576 27.4276H75.2745V32.6818H72.5515ZM75.217 24.0909C75.217 24.6747 75.2979 25.1839 75.4599 25.6186C75.6218 26.0533 75.8562 26.392 76.163 26.6349C76.4698 26.8736 76.8427 26.9929 77.2816 26.9929C77.7248 26.9929 78.0998 26.8714 78.4066 26.6286C78.7134 26.3814 78.9457 26.0405 79.1033 25.6058C79.2653 25.1669 79.3462 24.6619 79.3462 24.0909C79.3462 23.5241 79.2674 23.0256 79.1097 22.5952C78.9521 22.1648 78.7198 21.8281 78.413 21.5852C78.1062 21.3423 77.729 21.2209 77.2816 21.2209C76.8384 21.2209 76.4634 21.3381 76.1566 21.5724C75.854 21.8068 75.6218 22.1392 75.4599 22.5696C75.2979 23 75.217 23.5071 75.217 24.0909ZM83.9421 32.6818V19.1818H86.6268V20.831H86.7482C86.8675 20.5668 87.0401 20.2983 87.266 20.0256C87.4961 19.7486 87.7944 19.5185 88.1609 19.3352C88.5316 19.1477 88.9918 19.054 89.5415 19.054C90.2575 19.054 90.918 19.2415 91.5231 19.6165C92.1282 19.9872 92.6119 20.5476 92.9741 21.2976C93.3363 22.0433 93.5174 22.9787 93.5174 24.1037C93.5174 25.1989 93.3406 26.1236 92.9869 26.8778C92.6374 27.6278 92.1602 28.1967 91.555 28.5845C90.9542 28.968 90.2809 29.1598 89.5352 29.1598C89.0067 29.1598 88.5572 29.0724 88.1864 28.8977C87.82 28.723 87.5195 28.5036 87.2852 28.2393C87.0508 27.9709 86.8718 27.7003 86.7482 27.4276H86.6651V32.6818H83.9421ZM86.6076 24.0909C86.6076 24.6747 86.6886 25.1839 86.8505 25.6186C87.0124 26.0533 87.2468 26.392 87.5536 26.6349C87.8604 26.8736 88.2333 26.9929 88.6722 26.9929C89.1154 26.9929 89.4904 26.8714 89.7972 26.6286C90.104 26.3814 90.3363 26.0405 90.494 25.6058C90.6559 25.1669 90.7369 24.6619 90.7369 24.0909C90.7369 23.5241 90.658 23.0256 90.5004 22.5952C90.3427 22.1648 90.1104 21.8281 89.8036 21.5852C89.4968 21.3423 89.1197 21.2209 88.6722 21.2209C88.229 21.2209 87.854 21.3381 87.5472 21.5724C87.2447 21.8068 87.0124 22.1392 86.8505 22.5696C86.6886 23 86.6076 23.5071 86.6076 24.0909ZM95.3327 29V19.1818H97.9727V20.8949H98.0749C98.2539 20.2855 98.5543 19.8253 98.9762 19.5142C99.3981 19.1989 99.8839 19.0412 100.434 19.0412C100.57 19.0412 100.717 19.0497 100.875 19.0668C101.032 19.0838 101.171 19.1072 101.29 19.1371V21.5533C101.162 21.5149 100.985 21.4808 100.76 21.451C100.534 21.4212 100.327 21.4062 100.14 21.4062C99.739 21.4062 99.381 21.4936 99.0657 21.6683C98.7546 21.8388 98.5075 22.0774 98.3242 22.3842C98.1452 22.6911 98.0558 23.0447 98.0558 23.4453V29H95.3327ZM106.677 29.1918C105.684 29.1918 104.825 28.9808 104.101 28.5589C103.381 28.1328 102.825 27.5405 102.433 26.782C102.041 26.0192 101.845 25.1349 101.845 24.1293C101.845 23.1151 102.041 22.2287 102.433 21.4702C102.825 20.7074 103.381 20.1151 104.101 19.6932C104.825 19.267 105.684 19.054 106.677 19.054C107.67 19.054 108.526 19.267 109.247 19.6932C109.971 20.1151 110.529 20.7074 110.921 21.4702C111.313 22.2287 111.509 23.1151 111.509 24.1293C111.509 25.1349 111.313 26.0192 110.921 26.782C110.529 27.5405 109.971 28.1328 109.247 28.5589C108.526 28.9808 107.67 29.1918 106.677 29.1918ZM106.69 27.0824C107.142 27.0824 107.519 26.9545 107.821 26.6989C108.124 26.4389 108.352 26.0852 108.505 25.6378C108.663 25.1903 108.742 24.6811 108.742 24.1101C108.742 23.5391 108.663 23.0298 108.505 22.5824C108.352 22.1349 108.124 21.7812 107.821 21.5213C107.519 21.2614 107.142 21.1314 106.69 21.1314C106.234 21.1314 105.85 21.2614 105.539 21.5213C105.232 21.7812 105 22.1349 104.843 22.5824C104.689 23.0298 104.612 23.5391 104.612 24.1101C104.612 24.6811 104.689 25.1903 104.843 25.6378C105 26.0852 105.232 26.4389 105.539 26.6989C105.85 26.9545 106.234 27.0824 106.69 27.0824ZM122.117 19.1818L118.684 29H115.616L112.184 19.1818H115.06L117.099 26.2067H117.202L119.234 19.1818H122.117ZM127.669 29.1918C126.659 29.1918 125.789 28.9872 125.061 28.5781C124.336 28.1648 123.778 27.581 123.386 26.8267C122.994 26.0682 122.798 25.1712 122.798 24.1357C122.798 23.1257 122.994 22.2393 123.386 21.4766C123.778 20.7138 124.33 20.1193 125.041 19.6932C125.757 19.267 126.597 19.054 127.56 19.054C128.208 19.054 128.811 19.1584 129.369 19.3672C129.931 19.5717 130.421 19.8807 130.839 20.294C131.261 20.7074 131.589 21.2273 131.823 21.8537C132.058 22.4759 132.175 23.2045 132.175 24.0398V24.7876H123.884V23.1001H129.612C129.612 22.7081 129.526 22.3608 129.356 22.0582C129.186 21.7557 128.949 21.5192 128.646 21.3487C128.348 21.174 128.001 21.0866 127.605 21.0866C127.191 21.0866 126.825 21.1825 126.505 21.3743C126.19 21.5618 125.943 21.8153 125.764 22.1349C125.585 22.4503 125.493 22.8018 125.489 23.1896V24.794C125.489 25.2798 125.578 25.6996 125.757 26.0533C125.941 26.407 126.198 26.6797 126.531 26.8714C126.863 27.0632 127.257 27.1591 127.713 27.1591C128.016 27.1591 128.293 27.1165 128.544 27.0312C128.796 26.946 129.011 26.8182 129.19 26.6477C129.369 26.4773 129.505 26.2685 129.599 26.0213L132.117 26.1875C131.99 26.7926 131.727 27.321 131.331 27.7727C130.939 28.2202 130.432 28.5696 129.81 28.821C129.192 29.0682 128.478 29.1918 127.669 29.1918Z" fill="white"/>
</svg>
