<svg width="248" height="44" viewBox="0 0 248 44" fill="none" xmlns="http://www.w3.org/2000/svg">
<rect width="248" height="44" rx="10" fill="#B6984C"/>
<path d="M78.2393 19.674C78.1882 19.1584 77.9688 18.7578 77.581 18.4723C77.1932 18.1868 76.6669 18.044 76.0021 18.044C75.5504 18.044 75.169 18.108 74.858 18.2358C74.5469 18.3594 74.3082 18.532 74.142 18.7536C73.9801 18.9751 73.8991 19.2266 73.8991 19.5078C73.8906 19.7422 73.9396 19.9467 74.0462 20.1214C74.157 20.2962 74.3082 20.4474 74.5 20.5753C74.6918 20.6989 74.9134 20.8075 75.1648 20.9013C75.4162 20.9908 75.6847 21.0675 75.9702 21.1314L77.1463 21.4126C77.7173 21.5405 78.2415 21.7109 78.7188 21.924C79.196 22.1371 79.6094 22.3991 79.9588 22.7102C80.3082 23.0213 80.5788 23.3878 80.7706 23.8097C80.9666 24.2315 81.0668 24.7152 81.071 25.2607C81.0668 26.0618 80.8622 26.7564 80.4574 27.3445C80.0568 27.9283 79.4773 28.3821 78.7188 28.706C77.9645 29.0256 77.0547 29.1854 75.9893 29.1854C74.9325 29.1854 74.0121 29.0234 73.228 28.6996C72.4482 28.3757 71.8388 27.8963 71.3999 27.2614C70.9652 26.6222 70.7372 25.8317 70.7159 24.8899H73.3942C73.424 25.3288 73.5497 25.6953 73.7713 25.9893C73.9972 26.2791 74.2976 26.4986 74.6726 26.6477C75.0518 26.7926 75.4801 26.8651 75.9574 26.8651C76.4261 26.8651 76.8331 26.7969 77.1783 26.6605C77.5277 26.5241 77.7983 26.3345 77.9901 26.0916C78.1818 25.8487 78.2777 25.5696 78.2777 25.2543C78.2777 24.9602 78.1903 24.7131 78.0156 24.5128C77.8452 24.3125 77.5938 24.142 77.2614 24.0014C76.9332 23.8608 76.5305 23.733 76.0533 23.6179L74.6278 23.2599C73.5241 22.9915 72.6527 22.5717 72.0135 22.0007C71.3743 21.4297 71.0568 20.6605 71.0611 19.6932C71.0568 18.9006 71.2678 18.2081 71.6939 17.6158C72.1243 17.0234 72.7145 16.5611 73.4645 16.2287C74.2145 15.8963 75.0668 15.7301 76.0213 15.7301C76.9929 15.7301 77.8409 15.8963 78.5653 16.2287C79.294 16.5611 79.8608 17.0234 80.2656 17.6158C80.6705 18.2081 80.8793 18.8942 80.892 19.674H78.2393ZM85.6046 23.3239V29H82.8816V15.9091H85.5279V20.9141H85.6429C85.8645 20.3345 86.2225 19.8807 86.7168 19.5526C87.2111 19.2202 87.8311 19.054 88.5769 19.054C89.2587 19.054 89.8532 19.2031 90.3603 19.5014C90.8716 19.7955 91.2679 20.2195 91.5492 20.7734C91.8347 21.3232 91.9753 21.9815 91.9711 22.7486V29H89.248V23.2344C89.2523 22.6293 89.0989 22.1584 88.7878 21.8217C88.481 21.4851 88.0506 21.3168 87.4966 21.3168C87.1259 21.3168 86.7978 21.3956 86.5123 21.5533C86.231 21.7109 86.0094 21.9411 85.8475 22.2436C85.6898 22.5419 85.6088 22.902 85.6046 23.3239ZM96.9137 29.1854C96.2873 29.1854 95.729 29.0767 95.239 28.8594C94.7489 28.6378 94.3612 28.3118 94.0756 27.8814C93.7944 27.4467 93.6538 26.9055 93.6538 26.2578C93.6538 25.7124 93.7539 25.2543 93.9542 24.8835C94.1545 24.5128 94.4272 24.2145 94.7724 23.9886C95.1175 23.7628 95.5096 23.5923 95.9485 23.4773C96.3917 23.3622 96.8562 23.2812 97.342 23.2344C97.913 23.1747 98.3732 23.1193 98.7227 23.0682C99.0721 23.0128 99.3256 22.9318 99.4833 22.8253C99.641 22.7187 99.7198 22.5611 99.7198 22.3523V22.3139C99.7198 21.9091 99.592 21.5959 99.3363 21.3743C99.0849 21.1527 98.7269 21.0419 98.2624 21.0419C97.7724 21.0419 97.3825 21.1506 97.0927 21.3679C96.8029 21.581 96.6112 21.8494 96.5174 22.1733L93.9989 21.9688C94.1268 21.3722 94.3782 20.8565 94.7532 20.4219C95.1282 19.983 95.6119 19.6463 96.2042 19.4119C96.8008 19.1733 97.4911 19.054 98.2752 19.054C98.8207 19.054 99.3427 19.1179 99.8413 19.2457C100.344 19.3736 100.789 19.5717 101.177 19.8402C101.569 20.1087 101.878 20.4538 102.104 20.8757C102.33 21.2933 102.443 21.794 102.443 22.3778V29H99.8604V27.6385H99.7837C99.6261 27.9453 99.4151 28.2159 99.1509 28.4503C98.8867 28.6804 98.5692 28.8615 98.1985 28.9936C97.8278 29.1214 97.3995 29.1854 96.9137 29.1854ZM97.6935 27.3061C98.0941 27.3061 98.4478 27.2273 98.7546 27.0696C99.0614 26.9077 99.3022 26.6903 99.4769 26.4176C99.6516 26.1449 99.739 25.8359 99.739 25.4908V24.4489C99.6538 24.5043 99.5366 24.5554 99.3874 24.6023C99.2425 24.6449 99.0785 24.6854 98.8952 24.7237C98.712 24.7578 98.5288 24.7898 98.3455 24.8196C98.1623 24.8452 97.9961 24.8686 97.8469 24.8899C97.5273 24.9368 97.2482 25.0114 97.0096 25.1136C96.771 25.2159 96.5856 25.3544 96.4535 25.5291C96.3214 25.6996 96.2553 25.9126 96.2553 26.1683C96.2553 26.5391 96.3896 26.8224 96.658 27.0185C96.9308 27.2102 97.2759 27.3061 97.6935 27.3061ZM104.555 29V19.1818H107.195V20.8949H107.298C107.477 20.2855 107.777 19.8253 108.199 19.5142C108.621 19.1989 109.107 19.0412 109.656 19.0412C109.793 19.0412 109.94 19.0497 110.097 19.0668C110.255 19.0838 110.393 19.1072 110.513 19.1371V21.5533C110.385 21.5149 110.208 21.4808 109.982 21.451C109.756 21.4212 109.55 21.4062 109.362 21.4062C108.962 21.4062 108.604 21.4936 108.288 21.6683C107.977 21.8388 107.73 22.0774 107.547 22.3842C107.368 22.6911 107.278 23.0447 107.278 23.4453V29H104.555ZM115.938 29.1918C114.928 29.1918 114.059 28.9872 113.33 28.5781C112.606 28.1648 112.047 27.581 111.655 26.8267C111.263 26.0682 111.067 25.1712 111.067 24.1357C111.067 23.1257 111.263 22.2393 111.655 21.4766C112.047 20.7138 112.599 20.1193 113.311 19.6932C114.027 19.267 114.866 19.054 115.829 19.054C116.477 19.054 117.08 19.1584 117.638 19.3672C118.201 19.5717 118.691 19.8807 119.108 20.294C119.53 20.7074 119.858 21.2273 120.093 21.8537C120.327 22.4759 120.444 23.2045 120.444 24.0398V24.7876H112.154V23.1001H117.881C117.881 22.7081 117.796 22.3608 117.626 22.0582C117.455 21.7557 117.219 21.5192 116.916 21.3487C116.618 21.174 116.27 21.0866 115.874 21.0866C115.461 21.0866 115.094 21.1825 114.775 21.3743C114.459 21.5618 114.212 21.8153 114.033 22.1349C113.854 22.4503 113.763 22.8018 113.758 23.1896V24.794C113.758 25.2798 113.848 25.6996 114.027 26.0533C114.21 26.407 114.468 26.6797 114.8 26.8714C115.133 27.0632 115.527 27.1591 115.983 27.1591C116.285 27.1591 116.562 27.1165 116.814 27.0312C117.065 26.946 117.28 26.8182 117.459 26.6477C117.638 26.4773 117.775 26.2685 117.868 26.0213L120.387 26.1875C120.259 26.7926 119.997 27.321 119.601 27.7727C119.209 28.2202 118.702 28.5696 118.079 28.821C117.461 29.0682 116.748 29.1918 115.938 29.1918ZM129.187 29.1854C128.561 29.1854 128.002 29.0767 127.512 28.8594C127.022 28.6378 126.635 28.3118 126.349 27.8814C126.068 27.4467 125.927 26.9055 125.927 26.2578C125.927 25.7124 126.027 25.2543 126.228 24.8835C126.428 24.5128 126.701 24.2145 127.046 23.9886C127.391 23.7628 127.783 23.5923 128.222 23.4773C128.665 23.3622 129.13 23.2812 129.615 23.2344C130.186 23.1747 130.647 23.1193 130.996 23.0682C131.346 23.0128 131.599 22.9318 131.757 22.8253C131.914 22.7187 131.993 22.5611 131.993 22.3523V22.3139C131.993 21.9091 131.865 21.5959 131.61 21.3743C131.358 21.1527 131 21.0419 130.536 21.0419C130.046 21.0419 129.656 21.1506 129.366 21.3679C129.076 21.581 128.885 21.8494 128.791 22.1733L126.272 21.9688C126.4 21.3722 126.652 20.8565 127.027 20.4219C127.402 19.983 127.885 19.6463 128.478 19.4119C129.074 19.1733 129.765 19.054 130.549 19.054C131.094 19.054 131.616 19.1179 132.115 19.2457C132.618 19.3736 133.063 19.5717 133.451 19.8402C133.843 20.1087 134.152 20.4538 134.377 20.8757C134.603 21.2933 134.716 21.794 134.716 22.3778V29H132.134V27.6385H132.057C131.9 27.9453 131.689 28.2159 131.424 28.4503C131.16 28.6804 130.843 28.8615 130.472 28.9936C130.101 29.1214 129.673 29.1854 129.187 29.1854ZM129.967 27.3061C130.368 27.3061 130.721 27.2273 131.028 27.0696C131.335 26.9077 131.576 26.6903 131.75 26.4176C131.925 26.1449 132.012 25.8359 132.012 25.4908V24.4489C131.927 24.5043 131.81 24.5554 131.661 24.6023C131.516 24.6449 131.352 24.6854 131.169 24.7237C130.985 24.7578 130.802 24.7898 130.619 24.8196C130.436 24.8452 130.27 24.8686 130.12 24.8899C129.801 24.9368 129.522 25.0114 129.283 25.1136C129.044 25.2159 128.859 25.3544 128.727 25.5291C128.595 25.6996 128.529 25.9126 128.529 26.1683C128.529 26.5391 128.663 26.8224 128.931 27.0185C129.204 27.2102 129.549 27.3061 129.967 27.3061ZM139.552 23.3239V29H136.829V19.1818H139.424V20.9141H139.539C139.756 20.343 140.121 19.8913 140.632 19.5589C141.143 19.2223 141.763 19.054 142.492 19.054C143.174 19.054 143.768 19.2031 144.276 19.5014C144.783 19.7997 145.177 20.2259 145.458 20.7798C145.739 21.3295 145.88 21.9858 145.88 22.7486V29H143.157V23.2344C143.161 22.6335 143.008 22.1648 142.697 21.8281C142.386 21.4872 141.957 21.3168 141.412 21.3168C141.045 21.3168 140.722 21.3956 140.44 21.5533C140.163 21.7109 139.946 21.9411 139.788 22.2436C139.635 22.5419 139.556 22.902 139.552 23.3239ZM151.644 29.1598C150.898 29.1598 150.223 28.968 149.618 28.5845C149.017 28.1967 148.54 27.6278 148.186 26.8778C147.836 26.1236 147.662 25.1989 147.662 24.1037C147.662 22.9787 147.843 22.0433 148.205 21.2976C148.567 20.5476 149.049 19.9872 149.65 19.6165C150.255 19.2415 150.917 19.054 151.638 19.054C152.187 19.054 152.645 19.1477 153.012 19.3352C153.383 19.5185 153.681 19.7486 153.907 20.0256C154.137 20.2983 154.312 20.5668 154.431 20.831H154.514V15.9091H157.231V29H154.546V27.4276H154.431C154.303 27.7003 154.122 27.9709 153.888 28.2393C153.657 28.5036 153.357 28.723 152.986 28.8977C152.62 29.0724 152.172 29.1598 151.644 29.1598ZM152.507 26.9929C152.946 26.9929 153.317 26.8736 153.619 26.6349C153.926 26.392 154.16 26.0533 154.322 25.6186C154.488 25.1839 154.572 24.6747 154.572 24.0909C154.572 23.5071 154.491 23 154.329 22.5696C154.167 22.1392 153.932 21.8068 153.626 21.5724C153.319 21.3381 152.946 21.2209 152.507 21.2209C152.059 21.2209 151.682 21.3423 151.376 21.5852C151.069 21.8281 150.836 22.1648 150.679 22.5952C150.521 23.0256 150.442 23.5241 150.442 24.0909C150.442 24.6619 150.521 25.1669 150.679 25.6058C150.841 26.0405 151.073 26.3814 151.376 26.6286C151.682 26.8714 152.059 26.9929 152.507 26.9929ZM163.687 29V15.9091H172.508V18.1911H166.454V21.3104H172.054V23.5923H166.454V26.718H172.533V29H163.687ZM177.457 29.1854C176.83 29.1854 176.272 29.0767 175.782 28.8594C175.292 28.6378 174.904 28.3118 174.619 27.8814C174.337 27.4467 174.197 26.9055 174.197 26.2578C174.197 25.7124 174.297 25.2543 174.497 24.8835C174.697 24.5128 174.97 24.2145 175.315 23.9886C175.661 23.7628 176.053 23.5923 176.491 23.4773C176.935 23.3622 177.399 23.2812 177.885 23.2344C178.456 23.1747 178.916 23.1193 179.266 23.0682C179.615 23.0128 179.869 22.9318 180.026 22.8253C180.184 22.7187 180.263 22.5611 180.263 22.3523V22.3139C180.263 21.9091 180.135 21.5959 179.879 21.3743C179.628 21.1527 179.27 21.0419 178.805 21.0419C178.315 21.0419 177.925 21.1506 177.636 21.3679C177.346 21.581 177.154 21.8494 177.06 22.1733L174.542 21.9688C174.67 21.3722 174.921 20.8565 175.296 20.4219C175.671 19.983 176.155 19.6463 176.747 19.4119C177.344 19.1733 178.034 19.054 178.818 19.054C179.364 19.054 179.886 19.1179 180.384 19.2457C180.887 19.3736 181.332 19.5717 181.72 19.8402C182.112 20.1087 182.421 20.4538 182.647 20.8757C182.873 21.2933 182.986 21.794 182.986 22.3778V29H180.403V27.6385H180.327C180.169 27.9453 179.958 28.2159 179.694 28.4503C179.43 28.6804 179.112 28.8615 178.741 28.9936C178.371 29.1214 177.942 29.1854 177.457 29.1854ZM178.237 27.3061C178.637 27.3061 178.991 27.2273 179.298 27.0696C179.604 26.9077 179.845 26.6903 180.02 26.4176C180.195 26.1449 180.282 25.8359 180.282 25.4908V24.4489C180.197 24.5043 180.08 24.5554 179.93 24.6023C179.786 24.6449 179.621 24.6854 179.438 24.7237C179.255 24.7578 179.072 24.7898 178.888 24.8196C178.705 24.8452 178.539 24.8686 178.39 24.8899C178.07 24.9368 177.791 25.0114 177.553 25.1136C177.314 25.2159 177.129 25.3544 176.996 25.5291C176.864 25.6996 176.798 25.9126 176.798 26.1683C176.798 26.5391 176.933 26.8224 177.201 27.0185C177.474 27.2102 177.819 27.3061 178.237 27.3061ZM185.098 29V19.1818H187.738V20.8949H187.841C188.02 20.2855 188.32 19.8253 188.742 19.5142C189.164 19.1989 189.65 19.0412 190.199 19.0412C190.336 19.0412 190.483 19.0497 190.64 19.0668C190.798 19.0838 190.936 19.1072 191.056 19.1371V21.5533C190.928 21.5149 190.751 21.4808 190.525 21.451C190.299 21.4212 190.093 21.4062 189.905 21.4062C189.505 21.4062 189.147 21.4936 188.831 21.6683C188.52 21.8388 188.273 22.0774 188.09 22.3842C187.911 22.6911 187.821 23.0447 187.821 23.4453V29H185.098ZM195.187 23.3239V29H192.464V19.1818H195.059V20.9141H195.174C195.391 20.343 195.756 19.8913 196.267 19.5589C196.778 19.2223 197.398 19.054 198.127 19.054C198.809 19.054 199.403 19.2031 199.91 19.5014C200.417 19.7997 200.812 20.2259 201.093 20.7798C201.374 21.3295 201.515 21.9858 201.515 22.7486V29H198.792V23.2344C198.796 22.6335 198.643 22.1648 198.331 21.8281C198.02 21.4872 197.592 21.3168 197.047 21.3168C196.68 21.3168 196.356 21.3956 196.075 21.5533C195.798 21.7109 195.581 21.9411 195.423 22.2436C195.27 22.5419 195.191 22.902 195.187 23.3239Z" fill="white"/>
<path d="M50.233 26.2593L49.2855 27.2068C48.8152 27.6309 48.2 27.8583 47.567 27.842C46.9339 27.8258 46.3312 27.5672 45.8833 27.1196C45.4353 26.672 45.1762 26.0695 45.1594 25.4364C45.1426 24.8034 45.3694 24.188 45.793 23.7173L46.7406 22.7697C46.935 22.5755 47.0444 22.312 47.0446 22.0371C47.0448 21.7622 46.9358 21.4986 46.7416 21.3041C46.5474 21.1096 46.2839 21.0002 46.009 21C45.7342 20.9998 45.4705 21.1088 45.276 21.303L44.3295 22.2506C43.4782 23.1019 43 24.2566 43 25.4605C43 26.6645 43.4782 27.8191 44.3295 28.6704C45.1808 29.5217 46.3354 30 47.5393 30C48.7431 30 49.8977 29.5217 50.749 28.6704L51.6965 27.7239C51.8907 27.5298 51.9999 27.2665 52 26.9919C52.0001 26.7174 51.8911 26.454 51.697 26.2598C51.503 26.0655 51.2397 25.9564 50.9651 25.9563C50.6906 25.9562 50.4272 26.0652 50.233 26.2593Z" fill="white"/>
<path d="M51.2326 20.3032L48.3032 23.2326C48.1091 23.4268 48 23.6901 48 23.9647C48 24.2393 48.1091 24.5026 48.3032 24.6968C48.4974 24.8909 48.7607 25 49.0353 25C49.3099 25 49.5732 24.8909 49.7674 24.6968L52.6968 21.7674C52.8909 21.5732 53 21.3099 53 21.0353C53 20.7607 52.8909 20.4974 52.6968 20.3032C52.5026 20.1091 52.2393 20 51.9647 20C51.6901 20 51.4268 20.1091 51.2326 20.3032Z" fill="white"/>
<path d="M56.6703 16.3297C56.2489 15.9082 55.7485 15.5737 55.1978 15.3456C54.647 15.1174 54.0568 15 53.4607 15C52.8645 15 52.2743 15.1174 51.7236 15.3456C51.1728 15.5737 50.6724 15.9082 50.251 16.3297L49.3035 17.2763C49.1093 17.4703 49.0001 17.7336 49 18.0082C48.9999 18.2828 49.1089 18.5461 49.3029 18.7403C49.497 18.9345 49.7603 19.0437 50.0348 19.0438C50.3094 19.0439 50.5727 18.9349 50.767 18.7408L51.7145 17.7933C52.1848 17.3692 52.7999 17.1419 53.4329 17.1581C54.066 17.1743 54.6687 17.4329 55.1166 17.8805C55.5646 18.3281 55.8237 18.9306 55.8405 19.5636C55.8573 20.1967 55.6305 20.8121 55.2068 21.2828L54.2593 22.2303C54.0649 22.4245 53.9555 22.6881 53.9553 22.9629C53.9551 23.2378 54.0641 23.5015 54.2583 23.6959C54.4525 23.8904 54.716 23.9998 54.9909 24C55.2657 24.0002 55.5294 23.8912 55.7239 23.697L56.6703 22.7494C57.0919 22.3279 57.4263 21.8275 57.6544 21.2768C57.8826 20.726 58 20.1357 58 19.5396C58 18.9434 57.8826 18.3531 57.6544 17.8024C57.4263 17.2516 57.0919 16.7512 56.6703 16.3297Z" fill="white"/>
</svg>
